#N canvas -5 -12 1920 1117 12;
#X obj 72 47 netreceive -u -b 57120;
#X obj 75 102 oscparse;
#X obj 72 162 list trim;
#X obj 77 278 unpack f f f f f f f;
#X obj 77 315 s f1;
#X obj 128 315 s f2;
#X obj 187 315 s f3;
#X obj 250 315 s amp;
#X obj 321 315 s timbre;
#X obj 412 315 s pan;
#X obj 480 315 s vibr;
#X obj 368 593 noise~;
#X obj 368 630 *~ 0.4;
#X obj 368 667 bp~ 200 10;
#X obj 467 667 bp~ 200 10;
#X obj 560 667 bp~ 200 10;
#X obj 424 699 +~;
#X obj 473 741 +~;
#X obj 77 352 r f1;
#X obj 72 445 pack f 80;
#X obj 72 482 line;
#X obj 72 630 pack f 80;
#X obj 72 667 line;
#X obj 72 815 pack f 80;
#X obj 72 852 line;
#X obj 72 556 r f2;
#X obj 72 741 r f3;
#X obj 695 233 r amp;
#X obj 695 270 clip 0 1;
#X obj 695 307 expr pow($f1 \, 0.6);
#X obj 695 344 * 0.88;
#X obj 695 408 + 0.12;
#X obj 695 445 pack f 200;
#X obj 695 482 line~;
#X obj 495 778 *~;
#X obj 904 233 r timbre;
#X obj 904 270 clip 0 1;
#X obj 904 307 pack f 150;
#X obj 904 344 line;
#X text 695 198 amplituda;
#X text 904 198 timbre;
#X obj 1081 233 r pan;
#X obj 1081 270 clip 0 1;
#X obj 1081 307 pack f 120;
#X obj 1081 344 line;
#X obj 1119 593 expr cos($f1*3.14159/2);
#X obj 940 593 expr sin($f1*3.14159/2);
#X text 1081 198 pan;
#X obj 974 630 sig~;
#X obj 1149 630 sig~;
#X obj 982 699 *~;
#X obj 1149 667 *~;
#X obj 1065 815 dac~;
#X obj 1246 233 r vibr;
#X obj 1246 270 clip 0 1;
#X obj 1246 307 * 15;
#X text 1246 198 vibr;
#X obj 1246 344 +;
#X obj 904 408 expr 20 + $f1*120;
#X obj 72 408 clip 60 2000;
#X obj 72 593 clip 60 2000;
#X obj 72 778 clip 60 2000;
#X obj 1033 741 writesf~ 2;
#X obj 306 80 route start stop;
#X msg 504 102 stop;
#X obj 72 199 route fpv rec;
#X obj 410 199 t s b, f 6;
#X msg 454 231 open \$1;
#X msg 573 199 start;
#X obj 334 135 symbol;
#X obj 500 199 del 20;
#X obj 250 199 print REC_START;
#X obj 327 231 print REC_STOP;
#X connect 0 0 1 0;
#X connect 1 0 2 0;
#X connect 2 0 65 0;
#X connect 3 0 4 0;
#X connect 3 1 5 0;
#X connect 3 2 6 0;
#X connect 3 3 7 0;
#X connect 3 4 8 0;
#X connect 3 5 9 0;
#X connect 3 6 10 0;
#X connect 11 0 12 0;
#X connect 12 0 13 0;
#X connect 12 0 14 0;
#X connect 12 0 15 0;
#X connect 13 0 16 0;
#X connect 14 0 16 1;
#X connect 15 0 17 1;
#X connect 16 0 17 0;
#X connect 17 0 34 0;
#X connect 18 0 59 0;
#X connect 19 0 20 0;
#X connect 20 0 13 1;
#X connect 21 0 22 0;
#X connect 22 0 14 1;
#X connect 23 0 24 0;
#X connect 24 0 15 1;
#X connect 25 0 60 0;
#X connect 26 0 61 0;
#X connect 27 0 28 0;
#X connect 28 0 29 0;
#X connect 29 0 30 0;
#X connect 30 0 31 0;
#X connect 31 0 32 0;
#X connect 32 0 33 0;
#X connect 33 0 34 1;
#X connect 34 0 50 0;
#X connect 34 0 51 0;
#X connect 35 0 36 0;
#X connect 36 0 37 0;
#X connect 37 0 38 0;
#X connect 38 0 58 0;
#X connect 41 0 42 0;
#X connect 42 0 43 0;
#X connect 43 0 44 0;
#X connect 44 0 45 0;
#X connect 44 0 46 0;
#X connect 45 0 49 0;
#X connect 46 0 48 0;
#X connect 48 0 50 1;
#X connect 49 0 51 1;
#X connect 50 0 62 0;
#X connect 50 0 52 0;
#X connect 51 0 62 1;
#X connect 51 0 52 1;
#X connect 53 0 54 0;
#X connect 54 0 55 0;
#X connect 55 0 57 1;
#X connect 57 0 13 2;
#X connect 57 0 14 2;
#X connect 57 0 15 2;
#X connect 58 0 13 2;
#X connect 58 0 14 2;
#X connect 58 0 15 2;
#X connect 58 0 57 0;
#X connect 59 0 19 0;
#X connect 60 0 21 0;
#X connect 61 0 23 0;
#X connect 63 0 69 0;
#X connect 63 0 71 0;
#X connect 63 1 64 0;
#X connect 63 1 72 0;
#X connect 64 0 62 0;
#X connect 65 0 3 0;
#X connect 65 1 63 0;
#X connect 66 0 67 0;
#X connect 66 1 70 0;
#X connect 67 0 62 0;
#X connect 69 0 66 0;
#X connect 70 0 68 0;
